<svg width="400" height="300" xmlns="http://www.w3.org/2000/svg">
  <defs>
    <linearGradient id="nailGradient1" x1="0%" y1="0%" x2="100%" y2="100%">
      <stop offset="0%" style="stop-color:#fd79a8;stop-opacity:1" />
      <stop offset="100%" style="stop-color:#e84393;stop-opacity:1" />
    </linearGradient>
    <linearGradient id="nailGradient2" x1="0%" y1="0%" x2="100%" y2="100%">
      <stop offset="0%" style="stop-color:#a29bfe;stop-opacity:1" />
      <stop offset="100%" style="stop-color:#6c5ce7;stop-opacity:1" />
    </linearGradient>
  </defs>
  
  <!-- Background -->
  <rect width="400" height="300" fill="#f8f4f0"/>
  
  <!-- Hand outline -->
  <path d="M 200 50 Q 150 60 120 100 Q 100 140 110 180 Q 120 220 160 240 Q 200 250 240 240 Q 280 220 290 180 Q 300 140 280 100 Q 250 60 200 50 Z" fill="#f4e4c1" stroke="#d4af37" stroke-width="2"/>
  
  <!-- Nails -->
  <!-- Thumb nail -->
  <ellipse cx="180" cy="80" rx="15" ry="20" fill="url(#nailGradient1)" transform="rotate(-20 180 80)"/>
  
  <!-- Index finger nail -->
  <ellipse cx="200" cy="70" rx="12" ry="18" fill="url(#nailGradient1)" transform="rotate(-10 200 70)"/>
  
  <!-- Middle finger nail -->
  <ellipse cx="220" cy="65" rx="12" ry="18" fill="url(#nailGradient1)" transform="rotate(5 220 65)"/>
  
  <!-- Ring finger nail -->
  <ellipse cx="240" cy="70" rx="12" ry="18" fill="url(#nailGradient1)" transform="rotate(15 240 70)"/>
  
  <!-- Pinky nail -->
  <ellipse cx="260" cy="80" rx="10" ry="15" fill="url(#nailGradient1)" transform="rotate(25 260 80)"/>
  
  <!-- Floral pattern -->
  <g opacity="0.8">
    <!-- Flowers -->
    <circle cx="200" cy="70" r="3" fill="#ffffff"/>
    <circle cx="200" cy="70" r="1.5" fill="#fd79a8"/>
    
    <circle cx="220" cy="65" r="3" fill="#ffffff"/>
    <circle cx="220" cy="65" r="1.5" fill="#fd79a8"/>
    
    <circle cx="240" cy="70" r="3" fill="#ffffff"/>
    <circle cx="240" cy="70" r="1.5" fill="#fd79a8"/>
  </g>
  
  <!-- Text -->
  <text x="200" y="280" text-anchor="middle" font-family="Arial, sans-serif" font-size="16" fill="#d4af37" font-weight="bold">Rosa Floral</text>
</svg>
