<svg width="400" height="300" xmlns="http://www.w3.org/2000/svg">
  <defs>
    <linearGradient id="bgGradient" x1="0%" y1="0%" x2="100%" y2="100%">
      <stop offset="0%" style="stop-color:#f8f4f0;stop-opacity:1" />
      <stop offset="100%" style="stop-color:#e8b4b8;stop-opacity:0.3" />
    </linearGradient>
  </defs>
  
  <!-- Background -->
  <rect width="400" height="300" fill="url(#bgGradient)"/>
  
  <!-- Work station -->
  <rect x="50" y="180" width="300" height="100" fill="#d4af37" opacity="0.2" rx="10"/>
  
  <!-- Professional hands -->
  <ellipse cx="150" cy="160" rx="25" ry="20" fill="#f4e4c1" transform="rotate(-15 150 160)"/>
  <ellipse cx="250" cy="160" rx="25" ry="20" fill="#f4e4c1" transform="rotate(15 250 160)"/>
  
  <!-- Client hand -->
  <ellipse cx="200" cy="200" rx="30" ry="25" fill="#f4e4c1" transform="rotate(0 200 200)"/>
  
  <!-- Tools -->
  <!-- File -->
  <rect x="100" y="140" width="40" height="8" fill="#c0c0c0" transform="rotate(-30 100 140)"/>
  
  <!-- Buffer -->
  <rect x="300" y="130" width="35" height="6" fill="#c0c0c0" transform="rotate(30 300 130)"/>
  
  <!-- Cuticle pusher -->
  <rect x="120" y="120" width="25" height="4" fill="#c0c0c0" transform="rotate(-45 120 120)"/>
  
  <!-- Products -->
  <circle cx="80" cy="220" r="12" fill="#ff6b9d" opacity="0.7"/>
  <circle cx="320" cy="220" r="12" fill="#74b9ff" opacity="0.7"/>
  
  <!-- Decorative elements -->
  <circle cx="60" cy="80" r="6" fill="#d4af37" opacity="0.4"/>
  <circle cx="340" cy="80" r="6" fill="#d4af37" opacity="0.4"/>
  
  <!-- Title -->
  <text x="200" y="30" text-anchor="middle" font-family="Arial, sans-serif" font-size="18" fill="#d4af37" font-weight="bold">Preparación y Limpieza</text>
</svg>
